<?xml version="1.0" standalone="no"?>
<!DOCTYPE svg PUBLIC "-//W3C//DTD SVG 20010904//EN"
 "http://www.w3.org/TR/2001/REC-SVG-20010904/DTD/svg10.dtd">
<svg version="1.0" xmlns="http://www.w3.org/2000/svg"
 width="478.000000pt" height="478.000000pt" viewBox="0 0 478.000000 478.000000"
 preserveAspectRatio="xMidYMid meet">
<metadata>
Created by potrace 1.11, written by Peter Selinger 2001-2013
</metadata>
<g transform="translate(0.000000,478.000000) scale(0.100000,-0.100000)"
fill="#000000" stroke="none">
<path d="M332 4559 c-51 -25 -78 -61 -91 -120 -7 -28 -11 -361 -11 -904 l-1
-860 -80 -65 c-87 -70 -122 -107 -113 -121 10 -17 30 -9 109 41 l80 51 5
-1133 c6 -1266 -1 -1166 77 -1225 32 -25 46 -28 122 -31 47 -2 529 22 1071 52
542 30 1399 78 1905 106 506 28 939 53 962 56 50 6 100 38 130 83 l23 34 0
868 c0 821 1 869 18 869 9 0 46 -9 80 -20 74 -23 116 -26 110 -7 -3 6 -50 36
-106 65 l-102 53 0 114 0 113 73 12 c86 15 144 37 131 50 -5 5 -53 12 -107 16
l-97 7 -1 381 c-1 210 -4 568 -8 797 l-6 416 -27 35 c-54 71 92 58 -2065 178
-1083 61 -1984 110 -2003 110 -19 0 -54 -10 -78 -21z m1789 -1089 c322 -33
541 -115 850 -317 322 -211 561 -315 924 -403 251 -61 547 -107 715 -111 l55
-1 -65 -14 c-36 -7 -131 -18 -212 -25 -187 -16 -357 -2 -596 46 -415 85 -687
178 -967 331 -245 133 -414 201 -617 246 -137 31 -438 33 -593 5 -462 -85
-821 -246 -1467 -661 -32 -20 -58 -35 -58 -33 0 3 104 89 231 193 426 348 598
467 819 565 352 155 659 211 981 179z m2009 -1015 c52 -9 140 -31 195 -49 95
-32 309 -125 302 -132 -2 -2 -27 3 -57 11 -327 88 -673 81 -1027 -21 -131 -38
-212 -76 -493 -231 -544 -301 -748 -405 -939 -478 -281 -107 -623 -192 -946
-236 -173 -23 -602 -37 -760 -23 l-100 8 170 12 c738 55 1467 282 2063 643
134 81 475 267 647 353 120 61 302 114 485 143 119 18 345 18 460 0z"/>
</g>
</svg>
